#!OML:ASF Z:\Project 1\Capture day 1\Session 1\Male1.ASF
:FULLY-SPECIFIED
:DEGREES
1125
root 12.9604 16.4829 -3.59576 -166.481 -14.9379 177.331
lowerback -6.60513 -3.60583 -1.10594
upperback 0.766552 -4.82166 1.86881
thorax 4.74821 -2.45051 2.03607
lowerneck -17.1693 -1.56274 -0.660283
upperneck 12.2842 -3.35812 7.35507
head 6.7157 -1.08901 2.11899
rclavicle 3.18055e-015 2.8625e-014
rhumerus 81.4999 1.38386 -60.351
rradius 24.0816
rwrist 55.4479
rhand -51.152 70.0805
rfingers 7.12502
rthumb -23.6944 41.5209
lclavicle 3.18055e-015 2.8625e-014
lhumerus 86.9285 -5.71611 70.2701
lradius 14.2826
lwrist -47.8541
lhand -37.3364 69.693
lfingers 7.12502
lthumb -10.3991 620.584
rfemur -17.2934 -8.54186 23.74
rtibia 21.2196
rfoot -14.2218 -12.134
rtoes -1.22555
lfemur 7.14543 0.48747 -12.6301
ltibia 17.0864
lfoot 16.8864 15.2484
ltoes 52.7157
1126
root 12.9662 16.4818 -3.58808 -166.488 -15.0871 177.205
lowerback -6.52785 -3.63815 -1.22359
upperback 0.772862 -4.8545 1.8625
thorax 4.72221 -2.46954 2.09593
lowerneck -17.1091 -1.58851 -0.539996
upperneck 12.4077 -3.40214 7.19865
head 6.74204 -1.11525 2.04456
rclavicle 2.9122e-014 7.95139e-015
rhumerus 81.5111 1.33377 -60.7103
rradius 24.01
rwrist 55.8385
rhand -51.3288 70.0779
rfingers 7.12502
rthumb -23.8639 41.5404
lclavicle 2.9122e-014 7.95139e-015
lhumerus 86.8923 -5.68802 69.8917
lradius 14.3879
lwrist -47.4395
lhand -37.0776 70.055
lfingers 7.12502
lthumb -10.1495 620.21
rfemur -17.2413 -8.74065 23.6683
rtibia 21.0915
rfoot -13.9251 -12.271
rtoes -2.47865
lfemur 6.80515 0.651202 -12.6506
ltibia 17.6068
lfoot 17.0668 14.8402
ltoes 52.8252
1127
root 12.9707 16.4818 -3.58348 -166.545 -15.1402 177.119
lowerback -6.47097 -3.64724 -1.27019
upperback 0.813352 -4.86106 1.83124
thorax 4.73386 -2.47351 2.09098
lowerneck -17.116 -1.66605 -0.44919
upperneck 12.4215 -3.55613 7.29506
head 6.75542 -1.17989 2.04378
rclavicle 4.03533e-014 1.59028e-014
rhumerus 81.5827 1.37092 -61.1428
rradius 23.8999
rwrist 56.2839
rhand -51.3655 70.0413
rfingers 7.12502
rthumb -23.8992 41.5084
lclavicle 4.03533e-014 1.59028e-014
lhumerus 86.8887 -5.70481 69.8369
lradius 14.3852
lwrist -47.3857
lhand -36.8566 70.2767
lfingers 7.12502
lthumb -9.93632 619.978
rfemur -17.1305 -8.82215 23.593
rtibia 20.9953
rfoot -13.7958 -12.3628
rtoes -3.27007
lfemur 6.57974 0.72927 -12.6856
ltibia 18.0605
lfoot 16.9289 14.998
ltoes 53.2893
1128
root 12.9736 16.485 -3.58123 -166.609 -15.1835 177.138
lowerback -6.48638 -3.66846 -1.14887
upperback 0.869107 -4.89751 1.79563
thorax 4.78899 -2.4881 1.97971
lowerneck -17.2927 -1.64042 -0.365717
upperneck 12.6412 -3.57621 7.33977
head 6.8574 -1.17469 2.04272
rclavicle -1.64991e-014 1.43125e-014
rhumerus 81.683 1.47057 -61.3708
rradius 23.848
rwrist 56.4457
rhand -51.2979 69.9347
rfingers 7.12502
rthumb -23.8344 41.3934
lclavicle -1.64991e-014 1.43125e-014
lhumerus 86.8616 -5.66318 69.9574
lradius 14.3499
lwrist -47.5197
lhand -36.7481 70.0805
lfingers 7.12502
lthumb -9.83163 620.169
rfemur -17.0553 -8.7917 23.5974
rtibia 20.965
rfoot -13.864 -12.3252
rtoes -2.78673
lfemur 6.37277 0.708438 -12.6412
ltibia 18.4305
lfoot 16.9 15.1976
ltoes 53.6773
1129
root 12.9759 16.4881 -3.57653 -166.649 -15.2812 177.061
lowerback -6.46092 -3.67207 -1.1256
upperback 0.910695 -4.90099 1.74097
thorax 4.81124 -2.48822 1.9101
lowerneck -17.7368 -1.64418 -0.515596
upperneck 13.2111 -3.61421 7.42921
head 7.12406 -1.16897 2.09394
rclavicle 4.2043e-014 -1.27222e-014
rhumerus 81.7072 1.44145 -61.5241
rradius 23.8201
rwrist 56.5872
rhand -51.254 69.8846
rfingers 7.12502
rthumb -23.7922 41.3377
lclavicle 4.2043e-014 -1.27222e-014
lhumerus 86.8294 -5.75377 70.4922
lradius 14.3151
lwrist -48.0282
lhand -36.6333 69.9026
lfingers 7.12502
lthumb -9.7209 620.342
rfemur -16.9964 -8.74654 23.5027
rtibia 20.9607
rfoot -13.879 -12.3471
rtoes -2.807
lfemur 6.16016 0.538992 -12.7175
ltibia 18.7757
lfoot 17.1334 15.2061
ltoes 53.7053
1130
root 12.978 16.4861 -3.56849 -166.695 -15.3016 176.897
lowerback -6.35284 -3.60455 -1.34385
upperback 0.929177 -4.79468 1.75854
thorax 4.78439 -2.44188 2.06761
lowerneck -17.9062 -1.68705 0.0494062
upperneck 13.396 -3.71513 6.83171
head 7.19426 -1.22978 1.79519
rclavicle -6.35117e-014 -8.74653e-015
rhumerus 81.6798 1.3243 -61.4351
rradius 23.7975
rwrist 56.7385
rhand -51.2653 69.8203
rfingers 7.12502
rthumb -23.803 41.2748
lclavicle -6.35117e-014 -8.74653e-015
lhumerus 86.7931 -5.89373 70.6999
lradius 14.3622
lwrist -48.0357
lhand -36.5454 69.9607
lfingers 7.12502
lthumb -9.6361 620.28
rfemur -16.8959 -8.72901 23.3115
rtibia 20.9221
rfoot -13.8455 -12.3727
rtoes -3.19653
lfemur 5.99375 0.53409 -12.8989
ltibia 19.16
lfoot 17.3093 15.2119
ltoes 53.2785
1131
root 12.9828 16.4843 -3.56097 -166.746 -15.2893 176.894
lowerback -6.30672 -3.49428 -1.44661
upperback 0.949069 -4.64391 1.82031
thorax 4.78507 -2.37169 2.20757
lowerneck -17.8689 -1.80676 0.186126
upperneck 13.3488 -3.89694 6.7621
head 7.17539 -1.31875 1.72905
rclavicle 6.50026e-014 -1.03368e-014
rhumerus 81.6154 1.15526 -61.1742
rradius 23.8145
rwrist 56.7676
rhand -51.2789 69.6543
rfingers 7.12502
rthumb -23.8161 41.1105
lclavicle 6.50026e-014 -1.03368e-014
lhumerus 86.8135 -6.04984 70.1329
lradius 14.4885
lwrist -47.3071
lhand -36.505 70.0533
lfingers 7.12502
lthumb -9.59708 620.185
rfemur -16.8145 -8.71513 23.2914
rtibia 20.8364
rfoot -13.9622 -12.2303
rtoes -1.94714
lfemur 5.76833 0.862512 -12.8343
ltibia 19.6093
lfoot 17.4586 15.0091
ltoes 53.2449
1132
root 12.9915 16.4865 -3.55389 -166.813 -15.4034 177.058
lowerback -6.30709 -3.43454 -1.24468
upperback 0.973526 -4.58365 1.85559
thorax 4.79428 -2.33778 2.13758
lowerneck -17.6323 -1.91499 0.334205
upperneck 13.0914 -4.06292 6.77129
head 7.05509 -1.40393 1.68912
rclavicle -9.93923e-016 -1.98785e-014
rhumerus 81.5369 1.0266 -60.8019
rradius 23.8835
rwrist 56.4832
rhand -51.2368 69.3154
rfingers 7.12502
rthumb -23.7757 40.7664
lclavicle -9.93923e-016 -1.98785e-014
lhumerus 86.8895 -6.176 68.9704
lradius 14.6944
lwrist -46.1544
lhand -36.333 70.2295
lfingers 7.12502
lthumb -9.43115 620.002
rfemur -16.734 -8.67797 23.4865
rtibia 20.6804
rfoot -13.9379 -12.249
rtoes -1.10885
lfemur 5.42522 1.09342 -12.5314
ltibia 20.1554
lfoot 17.5779 14.7397
ltoes 53.8803
1133
root 12.9984 16.4897 -3.54541 -166.877 -15.5914 177.138
lowerback -6.25687 -3.44006 -1.03539
upperback 0.97198 -4.60709 1.83772
thorax 4.74706 -2.34343 2.00328
lowerneck -17.558 -1.92589 0.16093
upperneck 13.1617 -4.08542 6.99449
head 7.07522 -1.40604 1.78774
rclavicle 2.06736e-014 -1.74931e-014
rhumerus 81.4335 1.0112 -60.302
rradius 23.989
rwrist 55.8927
rhand -51.1269 68.793
rfingers 7.12502
rthumb -23.6703 40.2303
lclavicle 2.06736e-014 -1.74931e-014
lhumerus 86.8576 -6.29298 68.6029
lradius 14.7699
lwrist -45.8583
lhand -36.1172 70.5068
lfingers 7.12502
lthumb -9.22293 619.715
rfemur -16.5945 -8.75312 23.6272
rtibia 20.4255
rfoot -13.6219 -12.4667
rtoes -1.76945
lfemur 5.01615 1.21778 -12.3143
ltibia 20.8055
lfoot 17.787 14.3527
ltoes 54.2946
1134
root 13.0017 16.4915 -3.53645 -166.885 -15.7191 177.076
lowerback -6.23028 -3.46226 -0.934363
upperback 0.972652 -4.63994 1.76543
thorax 4.71986 -2.35524 1.87053
lowerneck -17.2683 -1.8411 0.558743
upperneck 12.8767 -3.97399 6.65402
head 6.9136 -1.37452 1.6258
rclavicle -1.72943e-014 7.95139e-015
rhumerus 81.4059 1.03287 -60.4281
rradius 23.9867
rwrist 55.9118
rhand -51.0426 68.5004
rfingers 7.12502
rthumb -23.5894 39.9273
lclavicle -1.72943e-014 7.95139e-015
lhumerus 86.7389 -6.36447 68.9481
lradius 14.7284
lwrist -46.3181
lhand -36.0206 70.847
lfingers 7.12502
lthumb -9.12965 619.371
rfemur -16.4926 -9.26045 23.6978
rtibia 20.1032
rfoot -13.1062 -12.5944
rtoes -4.53011
lfemur 4.56478 1.41715 -12.2565
ltibia 21.5097
lfoot 17.99 13.9024
ltoes 54.2938
1135
root 13.0023 16.4901 -3.52605 -166.832 -15.779 176.927
lowerback -6.23811 -3.48616 -0.912481
upperback 0.987196 -4.66987 1.70897
thorax 4.73412 -2.36818 1.79584
lowerneck -17.4895 -1.75255 0.549407
upperneck 13.1294 -3.83703 6.48228
head 7.02425 -1.3094 1.58665
rclavicle -1.09332e-015 -1.35174e-014
rhumerus 81.5027 1.06603 -60.9455
rradius 23.8963
rwrist 56.4878
rhand -51.022 68.4918
rfingers 7.12502
rthumb -23.5698 39.9161
lclavicle -1.09332e-015 -1.35174e-014
lhumerus 86.727 -6.20011 67.6946
lradius 14.9631
lwrist -45.1238
lhand -35.9403 71.1932
lfingers 7.12502
lthumb -9.0522 619.021
rfemur -16.4438 -9.96146 23.7256
rtibia 19.7583
rfoot -12.4115 -12.8021
rtoes -10.0333
lfemur 4.08748 1.45579 -12.3449
ltibia 22.2554
lfoot 17.9683 13.8148
ltoes 54.2361
1136
root 13.0049 16.486 -3.51534 -166.844 -15.8046 176.872
lowerback -6.18361 -3.49673 -0.877756
upperback 1.00832 -4.68864 1.73191
thorax 4.72533 -2.37733 1.8009
lowerneck -17.8741 -1.72296 0.566516
upperneck 13.3824 -3.77546 6.24934
head 7.16375 -1.28085 1.51424
rclavicle 3.52843e-014 -3.97569e-015
rhumerus 81.6221 1.1311 -61.2211
rradius 23.8332
rwrist 56.8537
rhand -51.0423 68.4229
rfingers 7.12502
rthumb -23.5892 39.8498
lclavicle 3.52843e-014 -3.97569e-015
lhumerus 86.7065 -5.90704 65.8779
lradius 15.3064
lwrist -43.3007
lhand -36.0573 71.3609
lfingers 7.12502
lthumb -9.16506 618.858
rfemur -16.3715 -10.394 23.8114
rtibia 19.5116
rfoot -11.8017 -13.104
rtoes -14.5466
lfemur 3.75645 1.42791 -12.3769
ltibia 22.8538
lfoot 18.0338 13.7892
ltoes 54.1224
1137
root 13.0103 16.4749 -3.50158 -166.966 -15.8783 177.018
lowerback -6.05382 -3.47393 -0.695725
upperback 1.0395 -4.67687 1.7837
thorax 4.67364 -2.36848 1.76162
lowerneck -18.0503 -1.73722 0.652924
upperneck 13.4237 -3.7875 6.08379
head 7.20195 -1.29016 1.4443
rclavicle 5.22804e-014 -1.51076e-014
rhumerus 81.6255 1.11575 -60.8969
rradius 23.9103
rwrist 56.5184
rhand -51.0757 68.0582
rfingers 7.12502
rthumb -23.6212 39.4892
lclavicle 5.22804e-014 -1.51076e-014
lhumerus 86.6623 -5.85044 65.5496
lradius 15.3815
lwrist -42.9978
lhand -36.3075 71.4056
lfingers 7.12502
lthumb -9.4065 618.824
rfemur -16.2503 -10.9349 24.1623
rtibia 19.2743
rfoot -11.0438 -13.4669
rtoes -19.3049
lfemur 3.47434 1.43735 -12.1699
ltibia 23.4294
lfoot 18.1544 13.6554
ltoes 54.0735
1138
root 13.0164 16.4871 -3.49315 -167.032 -16.0409 177.076
lowerback -5.94894 -3.45485 -0.590315
upperback 1.04921 -4.66225 1.82018
thorax 4.61851 -2.35968 1.74851
lowerneck -18.0188 -1.72421 0.682545
upperneck 13.3783 -3.73092 5.89979
head 7.1747 -1.27661 1.38639
rclavicle -1.86858e-014 -1.35174e-014
rhumerus 81.5805 1.0385 -60.2964
rradius 24.032
rwrist 56.0546
rhand -51.0476 67.6163
rfingers 7.12502
rthumb -23.5943 39.0438
lclavicle -1.86858e-014 -1.35174e-014
lhumerus 86.6718 -6.01638 66.326
lradius 15.2398
lwrist -43.7541
lhand -36.382 71.223
lfingers 7.12502
lthumb -9.47844 619.01
rfemur -16.1312 -10.5867 24.134
rtibia 19.1446
rfoot -11.396 -13.2863
rtoes -16.8585
lfemur 3.18291 1.29657 -12.0295
ltibia 23.8428
lfoot 18.4224 13.6661
ltoes 54.2685
1139
root 13.02 16.4887 -3.48198 -167.01 -16.1572 176.996
lowerback -5.91416 -3.43473 -0.623863
upperback 1.04673 -4.63246 1.81815
thorax 4.59762 -2.34572 1.77037
lowerneck -18.0555 -1.80736 0.576061
upperneck 13.2905 -3.83708 6.0349
head 7.16046 -1.32286 1.43522
rclavicle -3.43897e-014 0
rhumerus 81.6165 0.982006 -60.392
rradius 23.9793
rwrist 56.3121
rhand -50.9166 67.5873
rfingers 7.12502
rthumb -23.4686 38.9987
lclavicle -3.43897e-014 0
lhumerus 86.6738 -6.19791 67.8411
lradius 14.9466
lwrist -45.2195
lhand -36.4341 70.4747
lfingers 7.12502
lthumb -9.52867 619.761
rfemur -16.1395 -10.9658 24.1223
rtibia 19.0695
rfoot -11.369 -13.2689
rtoes -18.0819
lfemur 2.86174 1.2909 -12.0316
ltibia 24.2065
lfoot 18.8329 13.4338
ltoes 54.2316
